<svg width="80" height="80" fill="none" xmlns="http://www.w3.org/2000/svg"><path d="M40.15 77.995c-10.713.1-20.425-6.308-24.63-16.12-4.206-9.812-2.003-21.327 5.606-28.936 7.61-7.61 19.024-9.913 28.937-5.808 9.912 4.105 16.42 13.718 16.42 24.531 0 14.418-11.715 26.333-26.333 26.333Zm0-50.163c-13.016.1-23.53 10.714-23.53 23.73s10.514 23.53 23.53 23.73c13.117 0 23.73-10.614 23.73-23.73s-10.613-23.73-23.73-23.73Zm8.01 14.518c-9.011.601-12.716-10.112-4.505-10.613 8.61-.6 13.316 10.013 4.505 10.613Zm-9.712-20.125c-4.505.2-9.011 1.502-12.816 3.905-.6-1.802-3.104-8.61-9.612-12.315 4.606.3 8.811 2.903 11.014 7.008 0 0-2.503-10.713-1.802-18.823 5.106 6.308 9.01 16.52 9.01 16.52-.5-4.605 1.503-9.21 5.107-12.014-3.304 6.908-1.401 14.017-.9 15.72Z" fill="#F79520"/><path d="M0 45.554h80v26.734H0V45.554Z" fill="#000"/><path d="m20.025 65.179-.901 5.106H2.303l3.604-22.928h6.008L9.11 65.179h10.914Zm2.203 5.006 3.704-22.928h6.008l-3.705 22.928h-6.007Zm17.322 0-5.507-22.928h6.508l3.404 15.92 8.51-15.92h6.509L45.958 70.185H39.55Zm26.232-17.822-.6 3.905h9.812l-.701 4.606H64.48l-.601 4.305h11.314l-.901 5.106H56.87l3.705-22.928h17.121l-.901 5.106H65.782v-.1Z" fill="#fff"/></svg>