<svg width="80" height="80" fill="none" xmlns="http://www.w3.org/2000/svg"><path d="M8.898 58.112c5.89-.172 11.767-.656 17.606-1.451 8.87-1.059 17.558-3.3 25.832-6.666a31.486 31.486 0 0 0 10.295-6.531 10.323 10.323 0 0 0 3.148-5.667 8.585 8.585 0 0 0-2.177-6.845 24.532 24.532 0 0 0-7.857-6.01 63.945 63.945 0 0 0-11.582-4.654 5.177 5.177 0 0 1-.794-.288c1.149.003 2.292.14 3.408.411a93.322 93.322 0 0 1 19.838 5.476 31.295 31.295 0 0 1 10.267 6.297 9.35 9.35 0 0 1 3.094 5.79 7.735 7.735 0 0 1-1.698 5.476 20.93 20.93 0 0 1-7.077 5.709 66.23 66.23 0 0 1-16.059 5.915 147.758 147.758 0 0 1-28.337 3.942c-7.378.357-14.769.28-22.137-.233-1.56-.11-3.121-.274-4.668-.41.123-.384.439-.193.658-.193h7.46c.262.037.529.012.78-.068Z" fill="#E31E13"/><path d="M57.073 43.738a7.173 7.173 0 1 1 7.078-7.31 7.228 7.228 0 0 1-7.078 7.31ZM29.05 39.234h-4.448c-.561 0-.61-.165-.479-.645.629-2.381.612-2.381 3.075-2.381h5.59c.33 0 .646 0 .513.496a10.4 10.4 0 0 1-11.822 8.499 6.481 6.481 0 0 1-5.54-7.01 11.574 11.574 0 0 1 10.814-10.6 7.506 7.506 0 0 1 6.614 3.126c.265.363.314.595-.149.776a4.112 4.112 0 0 0-.462.249 6.217 6.217 0 0 1-1.82.992c-.694.116-.925-.794-1.437-1.19a5.721 5.721 0 0 0-6.334 0 7.622 7.622 0 0 0-4.002 6.712 4.116 4.116 0 0 0 3.854 4.118 6.498 6.498 0 0 0 6.033-3.143ZM6.315 41.912h5.176c.611 0 .81 0 .595.76-.694 2.266-.678 2.266-3.026 2.266H2.959c-.594 0-.826 0-.612-.76a1496.266 1496.266 0 0 0 4.48-15.294 1.008 1.008 0 0 1 1.208-.877h7.59c.56 0 .677.099.512.678-.662 2.364-.662 2.364-3.108 2.364h-2.877c-.48 0-.745.099-.877.596a25.18 25.18 0 0 1-.662 2.248c-.247.728 0 .628.514.628h4.53c.562 0 .76 0 .578.712-.644 2.281-.628 2.298-2.975 2.298H8.118a.58.58 0 0 0-.678.479c-.297 1.125-.662 2.232-.975 3.307-.05.165-.084.33-.15.595ZM39.831 31.05h-3.588c.264-.942.529-1.802.76-2.66.1-.332.33-.35.612-.35h9.805l-.777 2.763c-.082.314-.347.247-.578.247h-2.349c-.694 0-.776.281-.909.76-1.173 4.003-2.364 8.004-3.505 12.022-.231.826-.53 1.157-1.455 1.123-2.067-.082-2.067 0-1.489-2l3.473-11.905Z" fill="#E31E13"/><path d="M13.005 58.112c-.232.206-.506.123-.766.123H4.806c-.247 0-.534-.11-.753.123a6.246 6.246 0 0 1-1.89-.246h10.842Z" fill="#EB5D56"/></svg>